<?xml version="1.0" encoding="UTF-8" standalone="no"?>
<svg
   xmlns:dc="http://purl.org/dc/elements/1.1/"
   xmlns:cc="http://creativecommons.org/ns#"
   xmlns:rdf="http://www.w3.org/1999/02/22-rdf-syntax-ns#"
   xmlns:svg="http://www.w3.org/2000/svg"
   xmlns="http://www.w3.org/2000/svg"
   xmlns:sodipodi="http://sodipodi.sourceforge.net/DTD/sodipodi-0.dtd"
   xmlns:inkscape="http://www.inkscape.org/namespaces/inkscape"
   version="1.1"
   viewBox="0 0 630 630"
   id="svg6218"
   sodipodi:docname="buckle-types-logo.svg"
   inkscape:version="0.92.1 r"
   inkscape:export-filename="/home/glennsl/dev.github/bs-logo/buckle-types-logo.png"
   inkscape:export-xdpi="96"
   inkscape:export-ydpi="96">
  <metadata
     id="metadata6224">
    <rdf:RDF>
      <cc:Work
         rdf:about="">
        <dc:format>image/svg+xml</dc:format>
        <dc:type
           rdf:resource="http://purl.org/dc/dcmitype/StillImage" />
        <dc:title></dc:title>
      </cc:Work>
    </rdf:RDF>
  </metadata>
  <defs
     id="defs6222" />
  <sodipodi:namedview
     pagecolor="#ffffff"
     bordercolor="#666666"
     borderopacity="1"
     objecttolerance="10"
     gridtolerance="10"
     guidetolerance="10"
     inkscape:pageopacity="0"
     inkscape:pageshadow="2"
     inkscape:window-width="1920"
     inkscape:window-height="1145"
     id="namedview6220"
     showgrid="false"
     showguides="false"
     inkscape:guide-bbox="true"
     inkscape:zoom="0.18730159"
     inkscape:cx="-741.25526"
     inkscape:cy="595.11863"
     inkscape:window-x="0"
     inkscape:window-y="27"
     inkscape:window-maximized="1"
     inkscape:current-layer="svg6218">
    <sodipodi:guide
       position="64.067797,344.36441"
       orientation="0,1"
       id="guide6790"
       inkscape:locked="false" />
    <sodipodi:guide
       position="165.16636,55.684659"
       orientation="1,0"
       id="guide6792"
       inkscape:locked="false" />
    <sodipodi:guide
       position="434.15158,49.078005"
       orientation="0,1"
       id="guide6794"
       inkscape:locked="false" />
    <sodipodi:guide
       position="580.44179,49.078005"
       orientation="1,0"
       id="guide6796"
       inkscape:locked="false" />
  </sodipodi:namedview>
  <!--
The MIT License (MIT)

Copyright (c) 2011 Christopher Williams <chris@iterativedesigns.com>,
                     Manuel Strehl <boldewyn@gmail.com>

Permission is hereby granted, free of charge, to any person obtaining a copy
of this software and associated documentation files (the "Software"), to deal
in the Software without restriction, including without limitation the rights
to use, copy, modify, merge, publish, distribute, sublicense, and/or sell
copies of the Software, and to permit persons to whom the Software is
furnished to do so, subject to the following conditions:

The above copyright notice and this permission notice shall be included in
all copies or substantial portions of the Software.

THE SOFTWARE IS PROVIDED "AS IS", WITHOUT WARRANTY OF ANY KIND, EXPRESS OR
IMPLIED, INCLUDING BUT NOT LIMITED TO THE WARRANTIES OF MERCHANTABILITY,
FITNESS FOR A PARTICULAR PURPOSE AND NONINFRINGEMENT. IN NO EVENT SHALL THE
AUTHORS OR COPYRIGHT HOLDERS BE LIABLE FOR ANY CLAIM, DAMAGES OR OTHER
LIABILITY, WHETHER IN AN ACTION OF CONTRACT, TORT OR OTHERWISE, ARISING FROM,
OUT OF OR IN CONNECTION WITH THE SOFTWARE OR THE USE OR OTHER DEALINGS IN
THE SOFTWARE.
-->
  <rect
     style="fill:#199ad5;fill-opacity:1"
     height="630"
     width="630"
     y="0"
     x="0"
     id="background"
     inkscape:export-xdpi="96"
     inkscape:export-ydpi="96" />
  <path
     style="fill:#0f6489;fill-opacity:1;stroke-width:2.70698929"
     inkscape:connector-curvature="0"
     id="path4607"
     d="m 233.3344,273.14876 c -0.5705,-3.82272 0.53776,-7.62665 -0.63331,-11.21314 -1.00174,-3.13015 -3.30017,-3.41738 -4.80965,-5.96226 -3.97713,-6.67637 -8.08802,-15.32581 -8.46742,-23.50009 -0.34652,-7.34211 -3.09272,-13.97547 -3.46672,-21.25316 -0.17997,-3.51131 0.24039,-7.13271 0.11201,-10.60911 -0.0683,-1.69126 -0.16655,-3.15701 -0.5077,-4.99321 -0.0848,-0.45365 -0.39056,-2.32206 -0.53227,-3.07102 l 0.92808,-2.27649 c -0.40943,-0.78117 7.92147,-0.52077 10.40549,-0.50467 4.21734,0.0512 8.18358,0.26598 12.38998,0.4644 8.59302,0.41868 16.42171,0.31422 24.79087,-0.95565 18.64909,-2.83216 27.22303,-10.32192 31.60961,-13.4359 17.12321,-12.14197 24.96557,-31.99385 24.96557,-31.99385 2.82519,-6.20117 2.81429,-17.26399 8.87141,-22.21688 7.13812,-5.84953 19.12406,-5.42804 27.31855,-9.01722 4.7933,-2.08586 8.25179,-3.23481 13.15156,-2.23621 3.63591,0.74632 10.18168,4.88848 11.68571,-0.92612 -1.2147,-0.77047 -1.68968,-2.17981 -2.33933,-2.961 6.75596,-0.6577 0.12837,-16.069421 -2.54404,-19.148513 -4.12729,-4.751548 -11.01423,-6.928688 -18.34067,-8.840078 -8.70218,-2.268381 -16.59638,-4.885755 -24.79088,-3.304573 -14.3089,2.754261 -13.2389,-5.299234 -21.67084,-5.299234 -10.1189,0 -28.1238,0.488604 -31.2356,10.163515 -1.44946,4.51801 -2.94263,4.70591 -5.45392,8.171613 -2.14823,2.969062 0.37378,5.58912 -0.70422,8.976964 -1.11373,3.481786 -2.7488,15.744566 -4.45483,20.023626 -2.88528,7.24009 -6.32465,16.28151 -12.67388,16.28151 -8.90145,1.04693 -15.8976,1.3825 -23.1176,-1.19461 -4.34561,-1.55165 -11.62836,-3.98113 -15.23154,-5.47371 -16.61825,-6.88037 -19.34792,-14.40765 -19.34792,-14.40765 -1.78247,-2.8993 -6.48024,-7.57299 -8.23811,-13.672197 -1.93261,-6.716569 -5.19458,-12.319117 -6.51574,-15.814323 -1.36756,-3.621381 -4.63769,-9.422602 -7.20633,-15.693589 -3.28926,-8.029327 -7.91605,-14.021127 -11.30358,-16.995549 -5.17546,-4.536807 -9.95241,-11.559432 -20.45891,-9.519222 -1.87797,0.364976 -8.70217,0.66845 -13.93222,4.982415 -3.54584,2.926134 -4.66502,8.963536 -7.94878,14.05603 -1.89713,2.942202 -5.23277,11.382276 -8.29274,18.423701 -2.12097,4.880422 -3.10913,8.5394 -5.40205,10.335335 -1.79339,1.406666 -4.01533,3.224061 -6.70405,2.233467 -1.66784,-0.614754 -3.450302,-1.65631 -5.24916,-3.038849 -2.429411,-1.8657 -7.951536,-11.10842 -11.344507,-17.935084 -2.939858,-5.919312 -9.215376,-14.770127 -12.84584,-19.561956 -5.224586,-6.893793 -8.287278,-8.641394 -16.006787,-8.641394 -16.560909,0 -17.813826,9.119259 -25.099321,22.380651 C 29.4936,69.800855 28.328029,79.046264 21.905117,86.291684 18.233711,90.436542 6.5179644,107.48043 -1.6273743,110.37698 v -0.0831 l -0.021814,0.0831 v 121.49228 l 0.021814,0.16907 v -0.76242 c 0.5268271,-1.58382 1.08640938,-3.10326 1.72242254,-4.46163 C 3.2450898,220.21309 10.555146,214.0871 14.616896,207.30875 c 2.208304,-3.69388 4.72779,-7.31258 6.190892,-11.189 1.258381,-3.33954 1.878015,-8.31926 3.695972,-11.21582 2.227414,-3.55158 5.715931,-4.75961 9.29726,-5.33409 5.609479,-0.91003 10.375483,7.92999 17.551785,11.1836 3.05996,1.38255 17.14506,6.28711 21.373329,7.29379 6.963385,1.63753 14.688342,3.00396 21.758199,4.40794 3.786053,0.75168 7.405587,1.18923 11.303567,1.5785 3.49671,0.34358 16.59641,0.77043 17.40711,1.70195 -6.65767,3.33952 -10.5611,12.71375 -13.06148,19.34716 -2.60683,6.91259 -4.42479,14.60635 -7.57484,21.3686 -3.491239,7.47094 -10.812214,10.57961 -9.938722,19.28544 0.335726,3.47372 0.979943,7.1166 0.390356,10.9393 -0.627834,4.02404 -2.282008,7.16493 -3.485796,11.10578 -1.54499,5.14079 -3.384784,21.74443 -5.76779,26.62482 l 14.568241,-1.79594 0.0248,-0.008 c 1.591396,-3.7207 3.057231,-19.42772 3.573131,-20.92298 2.72422,-7.87629 6.3383,-14.35666 11.89866,-20.44779 5.42111,-5.93543 5.13994,-13.58622 8.30637,-20.5015 3.42847,-7.5166 8.03891,-13.52719 12.38999,-20.59278 7.86415,-12.77552 13.05054,-28.90397 29.76977,-32.18443 1.78522,-0.36245 12.02147,6.89648 16.56365,11.21313 5.20274,4.91802 10.8859,10.61452 14.30347,17.39555 6.61673,13.14331 12.22893,32.18175 14.35261,42.68083 1.22015,6.02938 2.19192,6.38906 6.33828,11.16479 1.90806,2.18788 5.71592,9.02529 6.96888,11.65072 1.31568,2.80264 3.31654,9.18097 4.91069,12.43725 0.93898,1.93824 3.37382,7.89245 5.14538,13.03596 l 13.61291,-0.41867 c 0.049,0.11285 0.29743,-0.0336 0.35491,0.0726 0.004,0 0.0126,-0.002 0.0209,-0.004 -0.0575,-0.10195 -0.10909,-0.22025 -0.15815,-0.33016 -6.78326,-13.38762 -11.12345,-28.87713 -13.36448,-43.70094 z"
     inkscape:export-xdpi="96"
     inkscape:export-ydpi="96" />
  <text
     xml:space="preserve"
     style="font-style:normal;font-variant:normal;font-weight:bold;font-stretch:normal;font-size:357.95999146px;line-height:1.25;font-family:'DejaVu Sans';-inkscape-font-specification:'DejaVu Sans, Bold';font-variant-ligatures:normal;font-variant-caps:normal;font-variant-numeric:normal;font-feature-settings:normal;text-align:start;letter-spacing:0px;word-spacing:0px;writing-mode:lr-tb;text-anchor:start;fill:#9fd9f4;fill-opacity:1;stroke:none;stroke-width:8.94896889;"
     x="321.1947"
     y="573.26367"
     id="text5461"
     transform="scale(0.98739998,1.0127608)"
     inkscape:export-xdpi="96"
     inkscape:export-ydpi="96"><tspan
       sodipodi:role="line"
       id="tspan5459"
       x="321.1947"
       y="573.26367"
       style="font-style:normal;font-variant:normal;font-weight:bold;font-stretch:normal;font-size:357.95999146px;font-family:'DejaVu Sans';-inkscape-font-specification:'DejaVu Sans, Bold';font-variant-ligatures:normal;font-variant-caps:normal;font-variant-numeric:normal;font-feature-settings:normal;text-align:start;writing-mode:lr-tb;text-anchor:start;fill:#9fd9f4;fill-opacity:1;stroke-width:8.94896889;">'t</tspan></text>
</svg>
