<?xml version="1.0" encoding="UTF-8" standalone="no"?>
<svg
   xmlns:dc="http://purl.org/dc/elements/1.1/"
   xmlns:cc="http://creativecommons.org/ns#"
   xmlns:rdf="http://www.w3.org/1999/02/22-rdf-syntax-ns#"
   xmlns:svg="http://www.w3.org/2000/svg"
   xmlns="http://www.w3.org/2000/svg"
   xmlns:sodipodi="http://sodipodi.sourceforge.net/DTD/sodipodi-0.dtd"
   xmlns:inkscape="http://www.inkscape.org/namespaces/inkscape"
   version="1.1"
   viewBox="0 0 630 630"
   id="svg6218"
   sodipodi:docname="logo.svg"
   inkscape:version="0.92.1 r"
   inkscape:export-filename="/home/glennsl/dev.github/bs-logo/logo.png"
   inkscape:export-xdpi="95.699997"
   inkscape:export-ydpi="95.699997">
  <metadata
     id="metadata6224">
    <rdf:RDF>
      <cc:Work
         rdf:about="">
        <dc:format>image/svg+xml</dc:format>
        <dc:type
           rdf:resource="http://purl.org/dc/dcmitype/StillImage" />
        <dc:title />
      </cc:Work>
    </rdf:RDF>
  </metadata>
  <defs
     id="defs6222" />
  <sodipodi:namedview
     pagecolor="#ffffff"
     bordercolor="#666666"
     borderopacity="1"
     objecttolerance="10"
     gridtolerance="10"
     guidetolerance="10"
     inkscape:pageopacity="0"
     inkscape:pageshadow="2"
     inkscape:window-width="1920"
     inkscape:window-height="1145"
     id="namedview6220"
     showgrid="false"
     showguides="false"
     inkscape:guide-bbox="true"
     inkscape:zoom="0.18730159"
     inkscape:cx="-2092.6322"
     inkscape:cy="1399.5223"
     inkscape:window-x="0"
     inkscape:window-y="27"
     inkscape:window-maximized="1"
     inkscape:current-layer="svg6218">
    <sodipodi:guide
       position="64.067797,344.36441"
       orientation="0,1"
       id="guide6790"
       inkscape:locked="false" />
    <sodipodi:guide
       position="165.16636,55.684659"
       orientation="1,0"
       id="guide6792"
       inkscape:locked="false" />
    <sodipodi:guide
       position="434.15158,49.078005"
       orientation="0,1"
       id="guide6794"
       inkscape:locked="false" />
    <sodipodi:guide
       position="580.44179,49.078005"
       orientation="1,0"
       id="guide6796"
       inkscape:locked="false" />
  </sodipodi:namedview>
  <!--
The MIT License (MIT)

Copyright (c) 2011 Christopher Williams <chris@iterativedesigns.com>,
                     Manuel Strehl <boldewyn@gmail.com>

Permission is hereby granted, free of charge, to any person obtaining a copy
of this software and associated documentation files (the "Software"), to deal
in the Software without restriction, including without limitation the rights
to use, copy, modify, merge, publish, distribute, sublicense, and/or sell
copies of the Software, and to permit persons to whom the Software is
furnished to do so, subject to the following conditions:

The above copyright notice and this permission notice shall be included in
all copies or substantial portions of the Software.

THE SOFTWARE IS PROVIDED "AS IS", WITHOUT WARRANTY OF ANY KIND, EXPRESS OR
IMPLIED, INCLUDING BUT NOT LIMITED TO THE WARRANTIES OF MERCHANTABILITY,
FITNESS FOR A PARTICULAR PURPOSE AND NONINFRINGEMENT. IN NO EVENT SHALL THE
AUTHORS OR COPYRIGHT HOLDERS BE LIABLE FOR ANY CLAIM, DAMAGES OR OTHER
LIABILITY, WHETHER IN AN ACTION OF CONTRACT, TORT OR OTHERWISE, ARISING FROM,
OUT OF OR IN CONNECTION WITH THE SOFTWARE OR THE USE OR OTHER DEALINGS IN
THE SOFTWARE.
-->
  <rect
     style="fill:#17c4ae;fill-opacity:1"
     height="630"
     width="630"
     y="0"
     x="0"
     id="background"
     inkscape:export-xdpi="96"
     inkscape:export-ydpi="96" />
  <path
     style="fill:#14a996;fill-opacity:1;stroke-width:2.66813517"
     inkscape:connector-curvature="0"
     id="path4607"
     d="m 231.71357,268.08534 c -0.56657,-3.73957 0.53405,-7.46075 -0.62894,-10.96922 -0.99484,-3.06206 -3.2774,-3.34304 -4.77648,-5.83257 -3.94971,-6.53114 -8.03223,-14.99243 -8.40902,-22.98889 -0.34412,-7.1824 -3.07138,-13.67147 -3.4428,-20.79085 -0.17873,-3.43493 0.23873,-6.97755 0.11123,-10.37834 -0.0678,-1.65447 -0.1654,-3.08832 -0.50419,-4.88458 -0.0842,-0.44379 -0.38787,-2.27155 -0.52861,-3.00422 l 0.92169,-2.22697 c -0.40661,-0.76417 7.86683,-0.50945 10.33371,-0.49368 4.18826,0.05 8.12714,0.26018 12.30452,0.45429 8.53375,0.40957 16.30843,0.30739 24.61987,-0.93486 18.52046,-2.77055 27.03526,-10.09739 31.39159,-13.14364 17.00509,-11.87784 24.79335,-31.29788 24.79335,-31.29788 2.80571,-6.06629 2.79488,-16.88845 8.81022,-21.73361 7.08889,-5.72229 18.99215,-5.30997 27.13012,-8.82107 4.76023,-2.04048 8.19487,-3.16445 13.06085,-2.18757 3.61083,0.73009 10.11144,4.78215 11.60509,-0.90597 -1.20631,-0.75371 -1.67801,-2.1324 -2.32318,-2.89658 6.70935,-0.64341 0.12749,-15.71988 -2.52649,-18.73199 -4.09882,-4.64819 -10.93826,-6.77797 -18.21417,-8.64778 -8.64215,-2.219037 -16.48191,-4.779474 -24.61988,-3.232687 -14.2102,2.694347 -13.14758,-5.183962 -21.52136,-5.183962 -10.0491,0 -27.92981,0.477976 -31.02015,9.942429 -1.43946,4.41973 -2.92233,4.60354 -5.4163,7.99386 -2.13341,2.90447 0.37121,5.46754 -0.69936,8.78169 -1.10605,3.40604 -2.72985,15.40208 -4.42411,19.58805 -2.86538,7.08261 -6.28101,15.92734 -12.58645,15.92734 -8.84005,1.02416 -15.78794,1.35243 -22.95815,-1.16862 -4.31563,-1.51789 -11.54815,-3.89452 -15.12647,-5.35463 -16.50363,-6.73071 -19.21447,-14.09426 -19.21447,-14.09426 -1.77017,-2.83622 -6.43555,-7.40825 -8.18129,-13.37478 -1.91928,-6.57047 -5.15875,-12.05114 -6.47079,-15.47032 -1.35813,-3.54261 -4.60571,-9.217632 -7.15663,-15.352207 -3.26657,-7.854666 -7.86145,-13.716127 -11.22561,-16.625847 -5.13976,-4.43812 -9.88375,-11.307983 -20.31779,-9.312152 -1.86502,0.357036 -8.64214,0.653909 -13.83612,4.874032 -3.52139,2.862483 -4.63284,8.768555 -7.89395,13.750272 -1.88404,2.878201 -5.19668,11.134679 -8.23554,18.022932 -2.10634,4.77426 -3.08768,8.35364 -5.36478,10.11051 -1.78102,1.37607 -3.98764,3.15393 -6.65782,2.18489 -1.65634,-0.60138 -3.426501,-1.62028 -5.212951,-2.97275 C 94.889305,84.87803 89.40527,75.83637 86.035702,69.158206 83.116122,63.367655 76.88389,54.709371 73.278468,50.021778 c -5.188549,-6.743833 -8.230115,-8.45342 -15.896377,-8.45342 -16.446678,0 -17.690953,8.92089 -24.926195,21.893809 -3.177108,5.698661 -4.33464,14.742953 -10.713248,21.830773 -3.646082,4.05469 -15.2810178,20.72783 -23.3701727,23.56137 v -0.0813 l -0.021664,0.0813 v 118.84948 l 0.021664,0.16539 v -0.74584 c 0.5231931,-1.54937 1.07891564,-3.03575 1.71054181,-4.36457 3.12831369,-6.4576 10.38794789,-12.45033 14.42168089,-19.08123 2.193073,-3.61353 4.69518,-7.15352 6.14819,-10.94561 1.2497,-3.26689 1.865061,-8.13829 3.670479,-10.97184 2.21205,-3.47433 5.676503,-4.65608 9.23313,-5.21806 5.570786,-0.89024 10.303916,7.75748 17.43072,10.94032 3.038853,1.35247 17.026798,6.15034 21.225902,7.13513 6.915355,1.60191 14.587027,2.93861 21.608118,4.31206 3.759939,0.73533 7.354513,1.16335 11.225593,1.54416 3.47259,0.33611 16.48194,0.75366 17.28705,1.66493 -6.61176,3.26688 -10.48826,12.43719 -12.97139,18.9263 -2.58885,6.76222 -4.39427,14.28862 -7.52259,20.90377 -3.467157,7.30843 -10.737634,10.34948 -9.870167,18.86593 0.33341,3.39816 0.973183,6.96179 0.387664,10.70135 -0.623504,3.9365 -2.266269,7.00906 -3.461753,10.86419 -1.534333,5.02896 -3.361437,21.27142 -5.728006,26.04565 l 14.467754,-1.75687 0.02463,-0.008 c 1.580418,-3.63975 3.036148,-19.0051 3.548488,-20.46784 2.70543,-7.70496 6.29458,-14.04436 11.81659,-20.003 5.38371,-5.80631 5.10448,-13.29068 8.24907,-20.05553 3.40482,-7.35308 7.98345,-13.23293 12.30453,-20.14483 7.80991,-12.49761 12.96052,-28.27522 29.56442,-31.48432 1.77292,-0.35456 11.93856,6.74646 16.4494,10.96921 5.16686,4.81104 10.81083,10.38363 14.20481,17.01715 6.5711,12.8574 12.14458,31.4817 14.25362,41.7524 1.21173,5.89823 2.17679,6.25008 6.29456,10.92192 1.8949,2.14029 5.6765,8.82896 6.92081,11.39729 1.3066,2.74167 3.29367,8.98126 4.87681,12.16671 0.9325,1.89606 3.35056,7.72076 5.1099,12.75239 l 13.519,-0.40957 c 0.0487,0.1104 0.29539,-0.0328 0.35247,0.071 0.004,0 0.0125,-0.002 0.0208,-0.004 -0.0571,-0.0997 -0.10832,-0.21545 -0.15706,-0.32298 -6.73647,-13.0964 -11.04672,-28.24897 -13.27229,-42.75032 z"
     inkscape:export-xdpi="96"
     inkscape:export-ydpi="96" />
  <text
     xml:space="preserve"
     style="font-style:normal;font-weight:normal;font-size:357.95874023px;line-height:1.25;font-family:sans-serif;letter-spacing:0px;word-spacing:0px;fill:#0d695e;fill-opacity:1;stroke:none;stroke-width:8.94896889;"
     x="177.38272"
     y="567.33929"
     id="text5461"
     transform="scale(0.98739998,1.0127608)"
     inkscape:export-xdpi="96"
     inkscape:export-ydpi="96"><tspan
       sodipodi:role="line"
       id="tspan5459"
       x="177.38272"
       y="567.33929"
       style="font-style:normal;font-variant:normal;font-weight:bold;font-stretch:normal;font-size:357.95874023px;font-family:'DejaVu Sans Mono';-inkscape-font-specification:'DejaVu Sans Mono, Bold';font-variant-ligatures:normal;font-variant-caps:normal;font-variant-numeric:normal;font-feature-settings:normal;text-align:start;writing-mode:lr-tb;text-anchor:start;fill:#0d695e;fill-opacity:1;stroke-width:8.94896889;">BS</tspan></text>
</svg>
